# xmcd CD database file
#
# Track frame offsets:
#	151
#	28888
#	43737
#	57361
#	72862
#	87917
#	101537
#
# Disc length: 1547 seconds
#
# Revision: 0
# Processed by: cddbd v1.5.1PL2 Copyright (c) Steve Scherf et al.
# Submitted via: CDex 1.51
#
DISCID=5b060907
DTITLE=Bessie Smith - Vocal Jazz
DYEAR=2001
DGENRE=Jazz
TTITLE0=Empty Bed Blues
TTITLE1=Chicago Bound Blues
TTITLE2=Alexanders Rag Time Band
TTITLE3=Black Water Blues
TTITLE4=Sorrowful Blues
TTITLE5=Baby Doll
TTITLE6=Saint Louis Blues
EXTD=YEAR: 2001
EXTT0=
EXTT1=
EXTT2=
EXTT3=
EXTT4=
EXTT5=
EXTT6=
PLAYORDER=
